<svg width="15" height="14" viewBox="0 0 15 14" fill="none" xmlns="http://www.w3.org/2000/svg">
<path d="M3.20499 1.75075C3.2048 2.14857 3.04657 2.53003 2.76512 2.81119C2.48368 3.09235 2.10207 3.2502 1.70424 3.25C1.30642 3.2498 0.924968 3.09158 0.643804 2.81013C0.36264 2.52868 0.204795 2.14707 0.204994 1.74925C0.205193 1.35143 0.363419 0.969974 0.644864 0.68881C0.92631 0.407646 1.30792 0.249801 1.70574 0.25C2.10357 0.250199 2.48502 0.408425 2.76619 0.68987C3.04735 0.971316 3.20519 1.35293 3.20499 1.75075ZM3.24999 4.36075H0.249994V13.7507H3.24999V4.36075ZM7.98999 4.36075H5.00499V13.7507H7.95999V8.82325C7.95999 6.07825 11.5375 5.82325 11.5375 8.82325V13.7507H14.5V7.80325C14.5 3.17575 9.20499 3.34825 7.95999 5.62075L7.98999 4.36075Z" fill="#75757F"/>
</svg>
